<svg width="45" height="42" viewBox="0 0 45 42" fill="none" xmlns="http://www.w3.org/2000/svg">
<rect width="45" height="42" rx="16" fill="#FCE0CF"/>
<path d="M12 13.5C12 12.6717 12.6717 12 13.5 12H31.5C32.3297 12 33 12.6717 33 13.5C33 14.3297 32.3297 15 31.5 15H13.5C12.6717 15 12 14.3297 12 13.5ZM12 21C12 20.1703 12.6717 19.5 13.5 19.5H31.5C32.3297 19.5 33 20.1703 33 21C33 21.8297 32.3297 22.5 31.5 22.5H13.5C12.6717 22.5 12 21.8297 12 21ZM31.5 30H13.5C12.6717 30 12 29.3297 12 28.5C12 27.6703 12.6717 27 13.5 27H31.5C32.3297 27 33 27.6703 33 28.5C33 29.3297 32.3297 30 31.5 30Z" fill="#F48742"/>
</svg>
