<svg width="245" height="166" viewBox="0 0 245 166" fill="none" xmlns="http://www.w3.org/2000/svg">
<g clip-path="url(#clip0_57_701)">
<path d="M231.655 165.346C232.229 159.17 233.813 153.13 236.344 147.468C237.05 145.892 237.826 144.351 238.674 142.844C238.716 142.765 238.727 142.673 238.702 142.587C238.678 142.501 238.622 142.427 238.544 142.382C238.467 142.337 238.375 142.324 238.288 142.345C238.201 142.366 238.126 142.42 238.078 142.496C234.996 147.983 232.837 153.939 231.687 160.126C231.367 161.854 231.126 163.594 230.965 165.346C230.924 165.788 231.615 165.785 231.655 165.346Z" fill="#F2F2F2"/>
<path d="M240.345 143.951C242.759 143.951 244.716 141.994 244.716 139.581C244.716 137.168 242.759 135.211 240.345 135.211C237.932 135.211 235.975 137.168 235.975 139.581C235.975 141.994 237.932 143.951 240.345 143.951Z" fill="#F2F2F2"/>
<path d="M232.102 165.462C232.474 161.456 233.502 157.537 235.144 153.864C235.602 152.841 236.106 151.842 236.656 150.864C236.683 150.813 236.69 150.753 236.674 150.697C236.659 150.641 236.622 150.594 236.572 150.564C236.521 150.535 236.462 150.526 236.405 150.54C236.349 150.554 236.3 150.589 236.269 150.638C234.27 154.198 232.869 158.062 232.123 162.076C231.915 163.197 231.759 164.325 231.655 165.462C231.628 165.749 232.076 165.747 232.102 165.462H232.102Z" fill="#F2F2F2"/>
<path d="M237.74 151.582C239.306 151.582 240.575 150.313 240.575 148.747C240.575 147.181 239.306 145.912 237.74 145.912C236.174 145.912 234.905 147.181 234.905 148.747C234.905 150.313 236.174 151.582 237.74 151.582Z" fill="#F2F2F2"/>
<path d="M231.537 165.195C229.366 161.807 227.766 158.085 226.801 154.179C226.533 153.091 226.315 151.993 226.148 150.884C226.138 150.827 226.106 150.776 226.06 150.741C226.013 150.707 225.955 150.692 225.897 150.7C225.839 150.707 225.787 150.737 225.751 150.783C225.715 150.828 225.698 150.886 225.704 150.944C226.317 154.98 227.589 158.888 229.47 162.512C229.996 163.523 230.567 164.509 231.184 165.47C231.34 165.712 231.692 165.435 231.537 165.195Z" fill="#F2F2F2"/>
<path d="M225.7 151.383C227.266 151.383 228.536 150.114 228.536 148.548C228.536 146.982 227.266 145.713 225.7 145.713C224.134 145.713 222.865 146.982 222.865 148.548C222.865 150.114 224.134 151.383 225.7 151.383Z" fill="#F2F2F2"/>
<path d="M48.6222 165.346C48.0487 159.17 46.4646 153.13 43.9332 147.468C43.2277 145.892 42.4512 144.351 41.6037 142.844C41.5612 142.765 41.5509 142.673 41.5751 142.587C41.5993 142.501 41.656 142.427 41.7333 142.382C41.8106 142.337 41.9024 142.324 41.9894 142.345C42.0764 142.366 42.1517 142.42 42.1995 142.496C45.2817 147.983 47.441 153.939 48.591 160.126C48.9109 161.854 49.1513 163.594 49.3123 165.346C49.3532 165.788 48.6629 165.785 48.6222 165.346Z" fill="#F2F2F2"/>
<path d="M39.9323 143.951C42.3461 143.951 44.3028 141.994 44.3028 139.581C44.3028 137.168 42.3461 135.211 39.9323 135.211C37.5186 135.211 35.5618 137.168 35.5618 139.581C35.5618 141.994 37.5186 143.951 39.9323 143.951Z" fill="#F2F2F2"/>
<path d="M48.1752 165.462C47.8031 161.456 46.7755 157.537 45.1332 153.864C44.6755 152.841 44.1718 151.842 43.6219 150.864C43.5943 150.813 43.5876 150.753 43.6033 150.697C43.619 150.641 43.6558 150.594 43.7059 150.564C43.7561 150.535 43.8157 150.526 43.8722 150.54C43.9286 150.554 43.9775 150.589 44.0085 150.638C46.008 154.198 47.4089 158.062 48.1549 162.076C48.3625 163.197 48.5185 164.325 48.6229 165.462C48.6494 165.749 48.2016 165.747 48.1752 165.462H48.1752Z" fill="#F2F2F2"/>
<path d="M42.5376 151.582C44.1035 151.582 45.3729 150.313 45.3729 148.747C45.3729 147.181 44.1035 145.912 42.5376 145.912C40.9717 145.912 39.7023 147.181 39.7023 148.747C39.7023 150.313 40.9717 151.582 42.5376 151.582Z" fill="#F2F2F2"/>
<path d="M48.7402 165.195C50.9115 161.807 52.5116 158.085 53.4765 154.179C53.7445 153.091 53.9623 151.993 54.13 150.884C54.1397 150.827 54.1712 150.776 54.218 150.741C54.2648 150.707 54.3231 150.692 54.3807 150.7C54.4383 150.707 54.4906 150.737 54.5266 150.783C54.5626 150.828 54.5795 150.886 54.5738 150.944C53.9607 154.98 52.6883 158.888 50.8074 162.512C50.2815 163.523 49.7101 164.509 49.0932 165.47C48.9378 165.712 48.5858 165.435 48.7402 165.195H48.7402Z" fill="#F2F2F2"/>
<path d="M54.5773 151.383C56.1432 151.383 57.4127 150.114 57.4127 148.548C57.4127 146.982 56.1432 145.713 54.5773 145.713C53.0114 145.713 51.742 146.982 51.742 148.548C51.742 150.114 53.0114 151.383 54.5773 151.383Z" fill="#F2F2F2"/>
<path d="M215.228 108.22L215.297 159.598C215.297 160.552 214.919 161.467 214.245 162.143C213.572 162.818 212.658 163.199 211.704 163.201L190.359 163.233C196.368 151.994 199.77 134.303 199.75 120.668C199.744 115.286 199.198 109.919 198.118 104.647L211.625 104.628C212.579 104.627 213.494 105.005 214.17 105.679C214.845 106.352 215.226 107.266 215.228 108.22Z" fill="#F48742"/>
<path d="M244.66 166H34.0277C33.9378 166 33.8516 165.964 33.7881 165.9C33.7246 165.836 33.689 165.75 33.689 165.66C33.689 165.57 33.7246 165.484 33.7881 165.42C33.8516 165.357 33.9378 165.321 34.0277 165.321H244.66C244.75 165.321 244.837 165.356 244.901 165.42C244.964 165.484 245 165.57 245 165.66C245 165.75 244.964 165.837 244.901 165.9C244.837 165.964 244.75 166 244.66 166Z" fill="#3F3D56"/>
<path d="M183.949 101.198L145.908 101.048L149.607 88.7432C149.903 87.7765 150.5 86.9297 151.311 86.3266C152.122 85.7234 153.105 85.3957 154.116 85.3914H154.134L175.847 85.4766C176.861 85.485 177.845 85.8187 178.655 86.4285C179.466 87.0383 180.058 87.892 180.347 88.864L183.949 101.198Z" fill="#3F3D56"/>
<path d="M205.186 96.9868C204.127 96.9868 203.111 97.4076 202.362 98.1565C201.613 98.9054 201.192 99.9212 201.192 100.98H209.181C209.181 99.9212 208.76 98.9054 208.011 98.1565C207.262 97.4076 206.246 96.9868 205.186 96.9868Z" fill="#F48742"/>
<path d="M217.454 165.733H112.465C111.179 165.732 109.946 165.221 109.037 164.312C108.128 163.402 107.616 162.17 107.615 160.884V105.545C107.616 104.259 108.128 103.026 109.037 102.117C109.946 101.208 111.179 100.697 112.465 100.695H217.454C218.74 100.697 219.973 101.208 220.882 102.117C221.791 103.026 222.303 104.259 222.304 105.545V160.884C222.303 162.17 221.791 163.402 220.882 164.312C219.973 165.221 218.74 165.732 217.454 165.733ZM112.465 101.266C111.331 101.267 110.243 101.718 109.44 102.52C108.638 103.323 108.187 104.41 108.186 105.545V160.884C108.187 162.019 108.638 163.106 109.44 163.908C110.243 164.71 111.331 165.162 112.465 165.163H217.454C218.589 165.162 219.676 164.71 220.479 163.908C221.281 163.106 221.732 162.019 221.734 160.884V105.545C221.732 104.41 221.281 103.323 220.479 102.52C219.676 101.718 218.589 101.267 217.454 101.266H112.465Z" fill="#3F3D56"/>
<path d="M169.524 96.5589H160.395C159.752 96.5589 159.135 96.3035 158.68 95.8488C158.225 95.3941 157.97 94.7773 157.97 94.1343C157.97 93.4912 158.225 92.8745 158.68 92.4198C159.135 91.9651 159.752 91.7096 160.395 91.7096H169.524C170.168 91.7096 170.784 91.9651 171.239 92.4198C171.694 92.8745 171.949 93.4912 171.949 94.1343C171.949 94.7773 171.694 95.3941 171.239 95.8488C170.784 96.3035 170.168 96.5589 169.524 96.5589Z" fill="white"/>
<path d="M164.96 154.894C160.671 154.894 156.479 153.622 152.913 151.24C149.348 148.858 146.569 145.472 144.928 141.511C143.286 137.549 142.857 133.19 143.694 128.985C144.53 124.78 146.595 120.917 149.628 117.885C152.66 114.853 156.524 112.788 160.73 111.951C164.936 111.115 169.295 111.544 173.257 113.185C177.219 114.826 180.605 117.605 182.988 121.17C185.37 124.735 186.642 128.927 186.642 133.214C186.636 138.962 184.349 144.473 180.284 148.537C176.219 152.601 170.708 154.887 164.96 154.894ZM164.96 112.105C160.784 112.105 156.702 113.343 153.23 115.663C149.759 117.982 147.053 121.279 145.455 125.136C143.857 128.993 143.439 133.238 144.253 137.332C145.068 141.427 147.079 145.188 150.031 148.141C152.984 151.093 156.746 153.103 160.841 153.918C164.936 154.732 169.181 154.314 173.039 152.716C176.896 151.119 180.194 148.413 182.514 144.942C184.833 141.47 186.072 137.389 186.072 133.214C186.065 127.618 183.839 122.252 179.881 118.295C175.923 114.338 170.557 112.112 164.96 112.105Z" fill="#3F3D56"/>
<path d="M164.96 147.477C162.138 147.477 159.38 146.641 157.034 145.073C154.689 143.506 152.86 141.279 151.781 138.672C150.701 136.066 150.418 133.198 150.969 130.432C151.519 127.665 152.878 125.124 154.873 123.129C156.868 121.134 159.41 119.776 162.177 119.226C164.944 118.675 167.812 118.958 170.419 120.037C173.025 121.117 175.253 122.945 176.82 125.29C178.388 127.636 179.224 130.393 179.224 133.214C179.22 136.996 177.716 140.621 175.042 143.295C172.367 145.969 168.742 147.473 164.96 147.477ZM164.96 119.522C162.251 119.522 159.603 120.325 157.351 121.83C155.099 123.334 153.344 125.473 152.308 127.975C151.271 130.476 151 133.229 151.529 135.886C152.057 138.542 153.361 140.981 155.276 142.896C157.191 144.811 159.632 146.115 162.288 146.643C164.944 147.172 167.698 146.901 170.2 145.864C172.702 144.828 174.841 143.073 176.346 140.821C177.851 138.57 178.654 135.922 178.654 133.214C178.65 129.584 177.206 126.104 174.638 123.537C172.071 120.97 168.59 119.526 164.96 119.522Z" fill="#3F3D56"/>
<path d="M164.96 144.054C170.947 144.054 175.801 139.201 175.801 133.214C175.801 127.228 170.947 122.375 164.96 122.375C158.972 122.375 154.118 127.228 154.118 133.214C154.118 139.201 158.972 144.054 164.96 144.054Z" fill="#CCCCCC"/>
<path d="M158.398 133.214C158.398 131.496 159.019 129.836 160.146 128.538C161.273 127.241 162.83 126.395 164.532 126.154C163.52 126.01 162.49 126.085 161.51 126.374C160.53 126.663 159.624 127.159 158.853 127.828C158.081 128.498 157.462 129.325 157.038 130.254C156.614 131.183 156.395 132.193 156.395 133.214C156.395 134.236 156.614 135.245 157.038 136.174C157.462 137.103 158.081 137.931 158.853 138.6C159.624 139.27 160.53 139.766 161.51 140.054C162.49 140.343 163.52 140.418 164.532 140.275C162.83 140.034 161.273 139.187 160.146 137.89C159.019 136.593 158.398 134.933 158.398 133.214Z" fill="white"/>
<path d="M212.319 101.266H198.054V100.981C198.054 99.0891 198.805 97.2752 200.143 95.9379C201.481 94.6005 203.295 93.8491 205.186 93.8491C207.078 93.8491 208.892 94.6005 210.23 95.9379C211.567 97.2752 212.319 99.0891 212.319 100.981V101.266ZM198.631 100.695H211.742C211.668 99.0062 210.946 97.4107 209.724 96.2416C208.503 95.0724 206.877 94.4198 205.186 94.4198C203.495 94.4198 201.87 95.0724 200.648 96.2416C199.427 97.4107 198.704 99.0062 198.631 100.695Z" fill="#3F3D56"/>
<path d="M114.747 109.253C114.183 109.253 113.632 109.086 113.162 108.772C112.693 108.459 112.328 108.013 112.112 107.492C111.896 106.971 111.839 106.397 111.949 105.844C112.059 105.29 112.331 104.782 112.73 104.383C113.129 103.984 113.637 103.713 114.191 103.603C114.744 103.492 115.318 103.549 115.839 103.765C116.361 103.981 116.806 104.346 117.12 104.815C117.433 105.285 117.6 105.836 117.6 106.4C117.6 107.157 117.299 107.882 116.764 108.416C116.229 108.951 115.504 109.252 114.747 109.253ZM114.747 104.118C114.296 104.118 113.855 104.252 113.479 104.503C113.104 104.754 112.812 105.11 112.639 105.527C112.466 105.944 112.421 106.403 112.509 106.845C112.597 107.288 112.814 107.695 113.134 108.014C113.453 108.333 113.859 108.55 114.302 108.638C114.745 108.727 115.204 108.681 115.621 108.509C116.038 108.336 116.394 108.043 116.645 107.668C116.896 107.293 117.03 106.852 117.03 106.4C117.029 105.795 116.788 105.215 116.361 104.787C115.933 104.36 115.353 104.119 114.747 104.118Z" fill="#3F3D56"/>
<path d="M114.747 107.827C115.535 107.827 116.174 107.188 116.174 106.4C116.174 105.613 115.535 104.974 114.747 104.974C113.96 104.974 113.321 105.613 113.321 106.4C113.321 107.188 113.96 107.827 114.747 107.827Z" fill="#F48742"/>
<path d="M122.165 107.827C122.953 107.827 123.592 107.188 123.592 106.4C123.592 105.613 122.953 104.974 122.165 104.974C121.377 104.974 120.739 105.613 120.739 106.4C120.739 107.188 121.377 107.827 122.165 107.827Z" fill="#CCCCCC"/>
<path d="M129.583 107.827C130.371 107.827 131.009 107.188 131.009 106.4C131.009 105.613 130.371 104.974 129.583 104.974C128.795 104.974 128.156 105.613 128.156 106.4C128.156 107.188 128.795 107.827 129.583 107.827Z" fill="#CCCCCC"/>
<path d="M122.165 109.253C121.601 109.253 121.049 109.086 120.58 108.772C120.111 108.459 119.745 108.013 119.529 107.492C119.313 106.971 119.257 106.397 119.367 105.844C119.477 105.29 119.749 104.782 120.148 104.383C120.547 103.984 121.055 103.713 121.609 103.603C122.162 103.492 122.736 103.549 123.257 103.765C123.778 103.981 124.224 104.346 124.537 104.815C124.851 105.285 125.018 105.836 125.018 106.4C125.017 107.157 124.716 107.882 124.182 108.416C123.647 108.951 122.922 109.252 122.165 109.253ZM122.165 104.118C121.714 104.118 121.272 104.252 120.897 104.503C120.522 104.754 120.229 105.11 120.057 105.527C119.884 105.944 119.839 106.403 119.927 106.845C120.015 107.288 120.232 107.695 120.551 108.014C120.87 108.333 121.277 108.55 121.72 108.638C122.163 108.727 122.622 108.681 123.039 108.509C123.456 108.336 123.812 108.043 124.063 107.668C124.314 107.293 124.448 106.852 124.448 106.4C124.447 105.795 124.206 105.215 123.778 104.787C123.35 104.36 122.77 104.119 122.165 104.118Z" fill="#3F3D56"/>
<path d="M129.583 109.253C129.019 109.253 128.467 109.086 127.998 108.772C127.529 108.459 127.163 108.013 126.947 107.492C126.731 106.971 126.675 106.397 126.785 105.844C126.895 105.29 127.166 104.782 127.565 104.383C127.964 103.984 128.473 103.713 129.026 103.603C129.58 103.492 130.153 103.549 130.675 103.765C131.196 103.981 131.641 104.346 131.955 104.815C132.268 105.285 132.436 105.836 132.436 106.4C132.435 107.157 132.134 107.882 131.599 108.416C131.064 108.951 130.339 109.252 129.583 109.253ZM129.583 104.118C129.131 104.118 128.69 104.252 128.315 104.503C127.939 104.754 127.647 105.11 127.474 105.527C127.301 105.944 127.256 106.403 127.344 106.845C127.432 107.288 127.65 107.695 127.969 108.014C128.288 108.333 128.695 108.55 129.138 108.638C129.58 108.727 130.039 108.681 130.456 108.509C130.873 108.336 131.23 108.043 131.481 107.668C131.731 107.293 131.865 106.852 131.865 106.4C131.865 105.795 131.624 105.215 131.196 104.787C130.768 104.36 130.188 104.119 129.583 104.118Z" fill="#3F3D56"/>
<path d="M144.989 125.476H107.9V126.047H144.989V125.476Z" fill="#3F3D56"/>
<path d="M144.068 136.959H107.9V137.529H144.068V136.959Z" fill="#3F3D56"/>
<path d="M222.019 125.476H184.93V126.047H222.019V125.476Z" fill="#3F3D56"/>
<path d="M221.954 136.959H185.786V137.529H221.954V136.959Z" fill="#3F3D56"/>
<path d="M77.8363 69.1677C75.5227 68.105 74.0019 65.0666 74.0885 62.0702C74.1751 59.0737 75.7522 56.2713 77.9273 54.8423C78.9878 54.1629 80.2004 53.7576 81.4562 53.6627C82.7121 53.5678 83.9719 53.7864 85.1223 54.2987C87.4568 55.2923 90.5911 55.5629 91.9943 58.0324C93.0726 59.9302 92.6842 64.1639 91.9207 66.2741C91.2608 68.098 89.6474 69.1257 88.074 69.7008C86.3324 70.3316 84.4757 70.5811 82.6294 70.4324C80.7831 70.2837 78.9903 69.7403 77.3722 68.8389" fill="#2F2E41"/>
<path d="M63.7298 162.227L60.4035 161.145L62.9943 147.803L67.9034 149.399L63.7298 162.227Z" fill="#FFB8B8"/>
<path d="M58.337 159.422L64.7516 161.508L63.4377 165.547L52.9843 162.146C53.1568 161.616 53.4322 161.125 53.7945 160.701C54.1569 160.277 54.5993 159.929 55.0963 159.676C55.5934 159.423 56.1354 159.27 56.6914 159.226C57.2475 159.183 57.8066 159.249 58.337 159.422Z" fill="#2F2E41"/>
<path d="M93.5059 162.299L90.0081 162.299L88.3443 148.81L93.5065 148.81L93.5059 162.299Z" fill="#FFB8B8"/>
<path d="M87.5098 161.3H94.2553V165.546H83.2626C83.2626 164.989 83.3725 164.437 83.5859 163.921C83.7994 163.406 84.1122 162.938 84.5066 162.544C84.901 162.149 85.3692 161.836 85.8845 161.623C86.3998 161.41 86.952 161.3 87.5098 161.3Z" fill="#2F2E41"/>
<path d="M93.3299 156.782C93.3088 156.782 93.2878 156.781 93.2666 156.78L89.3907 156.596C89.0643 156.58 88.7563 156.44 88.5292 156.205C88.3021 155.97 88.173 155.658 88.168 155.331L87.6428 116.995C87.6415 116.9 87.6085 116.808 87.5491 116.734C87.4897 116.66 87.4073 116.608 87.3148 116.585C87.2223 116.563 87.1251 116.572 87.0385 116.612C86.9518 116.651 86.8807 116.718 86.8364 116.802L66.3069 155.722C66.1795 155.966 65.9768 156.162 65.7289 156.282C65.481 156.401 65.2012 156.437 64.9312 156.384L61.0737 155.65C60.892 155.615 60.7199 155.542 60.5693 155.435C60.4186 155.327 60.2929 155.189 60.2008 155.029C60.1086 154.868 60.0522 154.69 60.0354 154.506C60.0185 154.322 60.0417 154.136 60.1033 153.962L75.0613 111.586L76.2123 99.0514C76.238 98.759 76.3637 98.4845 76.5682 98.274C76.7728 98.0635 77.0437 97.9301 77.3353 97.8962C81.6938 97.3607 87.7839 93.7901 90.1999 92.2796C90.3482 92.1862 90.5143 92.1244 90.6877 92.0983C90.861 92.0723 91.0379 92.0824 91.2072 92.1281C91.3784 92.1741 91.5383 92.2547 91.6772 92.3649C91.8161 92.475 91.931 92.6124 92.0148 92.7685C97.8349 103.583 100.061 115.97 98.3703 128.134L94.5996 155.672C94.5591 155.98 94.4078 156.262 94.1741 156.466C93.9404 156.671 93.6403 156.783 93.3299 156.782Z" fill="#2F2E41"/>
<path d="M82.8969 72.1121C86.7668 72.1121 89.9041 68.9753 89.9041 65.1059C89.9041 61.2365 86.7668 58.0997 82.8969 58.0997C79.0269 58.0997 75.8897 61.2365 75.8897 65.1059C75.8897 68.9753 79.0269 72.1121 82.8969 72.1121Z" fill="#FFB8B8"/>
<path d="M75.915 102.061L73.8051 86.9868C73.2914 84.6962 73.7083 82.2955 74.9642 80.3122C76.22 78.3289 78.212 76.9253 80.5024 76.4098C82.7929 75.8943 85.1943 76.3092 87.1789 77.5632C89.1636 78.8172 90.5691 80.8077 91.0865 83.0974C91.6874 85.8839 92.9081 89.2761 92.4622 92.9328C89.3374 101.604 83.6649 104.278 75.915 102.061Z" fill="#B3B3B3"/>
<path d="M85.1871 78.6701H80.0518C79.7114 78.6697 79.3851 78.5343 79.1444 78.2937C78.9037 78.053 78.7683 77.7267 78.7679 77.3864V75.6749C78.7683 75.3346 78.9037 75.0083 79.1444 74.7676C79.3851 74.527 79.7114 74.3916 80.0518 74.3912H85.1871C85.5275 74.3916 85.8538 74.527 86.0945 74.7676C86.3352 75.0083 86.4706 75.3346 86.4709 75.6749V77.3864C86.4706 77.7267 86.3352 78.053 86.0945 78.2937C85.8538 78.5343 85.5275 78.6697 85.1871 78.6701Z" fill="#B3B3B3"/>
<path d="M111.213 107.162C111.352 106.736 111.396 106.285 111.342 105.84C111.289 105.396 111.138 104.968 110.901 104.588C110.664 104.208 110.346 103.884 109.97 103.64C109.595 103.396 109.17 103.237 108.727 103.175L92.7416 80.293L88.0018 84.9782L105.205 105.997C105.149 106.749 105.372 107.495 105.83 108.095C106.289 108.694 106.951 109.104 107.691 109.248C108.432 109.391 109.199 109.258 109.848 108.874C110.497 108.489 110.983 107.88 111.213 107.162V107.162Z" fill="#FFB8B8"/>
<path d="M97.742 87.2929L91.9694 91.1459C91.8052 91.2555 91.6192 91.3284 91.4243 91.3597C91.2293 91.391 91.0298 91.3799 90.8395 91.3272C90.6492 91.2745 90.4725 91.1814 90.3214 91.0542C90.1703 90.927 90.0485 90.7688 89.9641 90.5903L87.007 84.3352C86.4513 83.4919 86.2527 82.4626 86.4546 81.473C86.6566 80.4834 87.2426 79.6142 88.0844 79.056C88.9262 78.4977 89.955 78.2958 90.9453 78.4946C91.9357 78.6934 92.8068 79.2766 93.3678 80.1165L97.9978 85.228C98.1304 85.3744 98.2298 85.5476 98.2893 85.7359C98.3488 85.9242 98.3671 86.1231 98.3428 86.319C98.3185 86.515 98.2523 86.7034 98.1486 86.8714C98.0449 87.0395 97.9062 87.1832 97.742 87.2929Z" fill="#B3B3B3"/>
<path d="M54.7427 76.4173C54.7777 76.5712 54.8006 76.7276 54.811 76.8851L67.0666 83.9543L70.0455 82.2397L73.2212 86.3965L68.2427 89.9444C67.8405 90.231 67.3561 90.3794 66.8624 90.3674C66.3686 90.3554 65.8921 90.1835 65.5043 89.8777L52.8667 79.9092C52.2964 80.1203 51.6753 80.1527 51.086 80.0023C50.4968 79.8518 49.9673 79.5256 49.5681 79.0669C49.1688 78.6082 48.9187 78.0389 48.8509 77.4346C48.7832 76.8303 48.901 76.2197 49.1888 75.6841C49.4766 75.1484 49.9207 74.713 50.462 74.4358C51.0033 74.1587 51.6162 74.0529 52.2191 74.1325C52.822 74.2121 53.3864 74.4733 53.8372 74.8814C54.288 75.2896 54.6038 75.8253 54.7427 76.4173V76.4173Z" fill="#FFB8B8"/>
<path d="M70.6288 89.091L67.5493 82.8719C67.4617 82.6949 67.4133 82.5012 67.4073 82.3038C67.4013 82.1064 67.438 81.9101 67.5147 81.7282C67.5915 81.5463 67.7066 81.383 67.8521 81.2496C67.9977 81.1161 68.1703 81.0156 68.3582 80.9548L74.9424 78.8269C75.8504 78.3838 76.8971 78.3188 77.853 78.6462C78.8088 78.9736 79.5959 79.6665 80.0415 80.5732C80.4871 81.4799 80.555 82.5263 80.2302 83.4829C79.9055 84.4395 79.2145 85.2283 78.3089 85.6764L72.6439 89.6102C72.4817 89.7228 72.2971 89.7991 72.1027 89.8339C71.9083 89.8687 71.7087 89.8612 71.5175 89.812C71.3262 89.7627 71.1479 89.6728 70.9945 89.5484C70.8411 89.424 70.7164 89.268 70.6288 89.091H70.6288Z" fill="#B3B3B3"/>
<path d="M87.5992 56.2821C87.8516 56.3189 88.109 56.2715 88.3316 56.1472C88.5542 56.023 88.7297 55.8288 88.8308 55.5947C88.9243 55.3576 88.9622 55.1023 88.9416 54.8482C88.9211 54.5942 88.8426 54.3482 88.7123 54.1292C88.4469 53.6928 88.0766 53.3296 87.635 53.0728C87.1265 52.733 86.5385 52.5307 85.9285 52.4858C85.6241 52.4658 85.319 52.5115 85.0338 52.6197C84.7486 52.728 84.49 52.8962 84.2755 53.1131C84.0663 53.3354 83.9281 53.615 83.8787 53.9162C83.8293 54.2175 83.871 54.5266 83.9983 54.804C84.2545 55.298 84.7921 55.5751 85.316 55.7632C86.3551 56.1354 87.462 56.2807 88.562 56.1895" fill="#2F2E41"/>
<path d="M89.8398 68.2957C88.615 68.3532 88.8259 65.7548 88.4426 64.5904C88.0593 63.4259 87.531 62.037 86.3254 61.8137C85.3374 61.6307 84.4446 62.353 83.584 62.8716C82.0501 63.7958 80.0646 64.1368 78.454 63.3538C76.8434 62.5709 75.8639 60.479 76.6472 58.8688C76.8858 58.4262 77.2127 58.0372 77.6077 57.7261C78.0027 57.4149 78.4574 57.1882 78.9436 57.0599C79.9184 56.8094 80.9341 56.7606 81.9284 56.9165C84.1466 57.1884 86.278 57.9438 88.1723 59.1293C89.4795 59.949 90.7233 61.0652 91.1125 62.5581C91.5017 64.051 91.6602 68.1107 90.1388 68.3677L89.8398 68.2957Z" fill="#2F2E41"/>
<path d="M86.6355 52.6681C85.7104 51.4955 86.0589 49.648 87.1371 48.6143C88.2154 47.5807 89.8188 47.2586 91.3068 47.39C92.781 47.5385 94.1903 48.0719 95.3933 48.9368C96.5963 49.8017 97.5507 50.9677 98.1609 52.3178C99.1012 54.4684 99.0934 56.9283 99.9438 59.1161C100.397 60.2823 101.084 61.3434 101.963 62.234C102.842 63.1246 103.894 63.8259 105.054 64.2947C106.215 64.7635 107.458 64.9898 108.709 64.9598C109.96 64.9298 111.192 64.6441 112.329 64.1202C113.809 63.4378 115.218 62.1016 115.134 60.4741C116.069 64.0816 114.384 68.2081 111.19 70.1292C109.319 71.2545 107.104 71.6365 104.936 71.8994C103.524 72.0707 102.072 72.1982 100.694 71.8452C98.7656 71.3515 97.1511 69.9284 96.1735 68.1946C95.1958 66.4609 94.8112 64.4405 94.7963 62.4503C94.7847 60.8998 94.9877 59.3485 94.8805 57.8018C94.7732 56.255 94.3081 54.6551 93.1867 53.5841C92.0654 52.5132 90.173 52.1607 88.9423 53.104C88.4476 53.4831 88.0851 54.0367 87.5282 54.3164C86.9713 54.5961 86.0915 54.3786 86.0542 53.7566L86.6355 52.6681Z" fill="#2F2E41"/>
<path d="M59.7875 76.4673H1.99291C1.46455 76.4667 0.958 76.2566 0.584388 75.883C0.210777 75.5095 0.000613115 75.003 0 74.4747V41.9284C0.000613869 41.4001 0.210777 40.8937 0.584388 40.5201C0.957999 40.1465 1.46455 39.9364 1.99291 39.9358H59.7875C60.3158 39.9364 60.8224 40.1465 61.196 40.5201C61.5696 40.8936 61.7798 41.4001 61.7804 41.9284V74.4747C61.7798 75.003 61.5696 75.5095 61.196 75.8831C60.8224 76.2566 60.3158 76.4667 59.7875 76.4673ZM1.99291 40.3786C1.58196 40.3791 1.18797 40.5425 0.897376 40.833C0.606786 41.1236 0.443329 41.5175 0.442868 41.9284V74.4747C0.443329 74.8856 0.606786 75.2795 0.897376 75.5701C1.18797 75.8606 1.58196 76.0241 1.99291 76.0245H59.7875C60.1984 76.0241 60.5924 75.8606 60.883 75.5701C61.1736 75.2795 61.337 74.8856 61.3375 74.4747V41.9284C61.337 41.5175 61.1736 41.1236 60.883 40.8331C60.5924 40.5425 60.1984 40.3791 59.7875 40.3786H1.99291Z" fill="#3F3D56"/>
<path d="M21.0457 62.7824C25.6099 62.7824 29.3099 59.083 29.3099 54.5194C29.3099 49.9558 25.6099 46.2563 21.0457 46.2563C16.4815 46.2563 12.7814 49.9558 12.7814 54.5194C12.7814 59.083 16.4815 62.7824 21.0457 62.7824Z" fill="#E6E6E6"/>
<path d="M52.8912 69.1106L43.1903 52.3105C43.1296 52.2055 43.0424 52.1183 42.9374 52.0577C42.8324 51.997 42.7132 51.9651 42.592 51.9651C42.4707 51.9651 42.3516 51.997 42.2466 52.0577C42.1415 52.1183 42.0543 52.2055 41.9937 52.3105L36.0735 62.5631L27.2477 47.2785C27.17 47.1439 27.0581 47.0321 26.9235 46.9543C26.7888 46.8766 26.6361 46.8357 26.4806 46.8357C26.3251 46.8357 26.1724 46.8766 26.0378 46.9543C25.9031 47.0321 25.7913 47.1439 25.7135 47.2785L13.2757 68.8183C13.198 68.953 13.157 69.1057 13.157 69.2611C13.157 69.4166 13.198 69.5693 13.2757 69.7039C13.3534 69.8386 13.4653 69.9504 13.5999 70.0281C13.7346 70.1058 13.8873 70.1467 14.0428 70.1467H52.2929C52.4142 70.1467 52.5333 70.1148 52.6383 70.0542C52.7434 69.9936 52.8306 69.9064 52.8912 69.8014C52.9518 69.6964 52.9838 69.5773 52.9838 69.456C52.9838 69.3348 52.9519 69.2156 52.8912 69.1106Z" fill="#F48742"/>
<path d="M7.75024 43.921H4.20728V47.4635H7.75024V43.921Z" fill="#3F3D56"/>
<path d="M82.2844 28.5444H37.1259C36.713 28.5439 36.3172 28.3797 36.0253 28.0878C35.7334 27.796 35.5691 27.4002 35.5687 26.9874V1.55697C35.5691 1.14418 35.7334 0.748443 36.0253 0.456559C36.3172 0.164674 36.713 0.000480153 37.1259 0H82.2844C82.6972 0.000465083 83.093 0.164654 83.3849 0.456541C83.6769 0.748428 83.8411 1.14418 83.8415 1.55697V26.9874C83.8411 27.4002 83.6769 27.796 83.3849 28.0878C83.093 28.3797 82.6972 28.5439 82.2844 28.5444ZM37.1259 0.345992C36.8048 0.346353 36.4969 0.474054 36.2698 0.701078C36.0428 0.928101 35.9151 1.23591 35.9147 1.55697V26.9874C35.9151 27.3085 36.0428 27.6163 36.2698 27.8433C36.4969 28.0703 36.8048 28.198 37.1259 28.1984H82.2844C82.6055 28.198 82.9133 28.0703 83.1404 27.8433C83.3674 27.6163 83.4951 27.3085 83.4955 26.9874V1.55697C83.4951 1.23591 83.3674 0.928116 83.1404 0.701095C82.9133 0.474074 82.6055 0.346367 82.2844 0.345992H37.1259Z" fill="#CCCCCC"/>
<path d="M52.013 17.8516C55.5793 17.8516 58.4703 14.961 58.4703 11.3952C58.4703 7.82937 55.5793 4.93872 52.013 4.93872C48.4467 4.93872 45.5556 7.82937 45.5556 11.3952C45.5556 14.961 48.4467 17.8516 52.013 17.8516Z" fill="#F2F2F2"/>
<path d="M76.8959 22.796L69.316 9.66902C69.2686 9.58697 69.2004 9.51883 69.1184 9.47146C69.0363 9.42409 68.9432 9.39915 68.8485 9.39915C68.7537 9.39915 68.6606 9.42409 68.5786 9.47146C68.4965 9.51883 68.4284 9.58697 68.381 9.66902L63.7552 17.68L56.859 5.73722C56.7983 5.63203 56.7109 5.54468 56.6057 5.48394C56.5005 5.42321 56.3811 5.39124 56.2597 5.39124C56.1382 5.39124 56.0188 5.42321 55.9136 5.48394C55.8084 5.54468 55.721 5.63203 55.6603 5.73722L45.9418 22.5676C45.8811 22.6728 45.8491 22.7922 45.8491 22.9136C45.8491 23.0351 45.8811 23.1544 45.9418 23.2596C46.0026 23.3648 46.09 23.4522 46.1952 23.5129C46.3004 23.5737 46.4197 23.6056 46.5412 23.6056H76.4284C76.5232 23.6056 76.6163 23.5807 76.6983 23.5333C76.7804 23.4859 76.8485 23.4178 76.8959 23.3358C76.9433 23.2537 76.9682 23.1606 76.9682 23.0659C76.9682 22.9712 76.9433 22.8781 76.8959 22.796Z" fill="#E6E6E6"/>
<path d="M41.6244 3.11389H38.8561V5.88183H41.6244V3.11389Z" fill="#CCCCCC"/>
</g>
<defs>
<clipPath id="clip0_57_701">
<rect width="245" height="166" fill="white"/>
</clipPath>
</defs>
</svg>
