<svg width="16" height="17" viewBox="0 0 16 17" fill="none" xmlns="http://www.w3.org/2000/svg">
<path d="M11.8046 8.97139L5.80464 14.9714C5.74314 15.0351 5.66958 15.0858 5.58824 15.1208C5.50691 15.1557 5.41943 15.1741 5.33091 15.1749C5.24239 15.1757 5.1546 15.1588 5.07267 15.1253C4.99074 15.0917 4.9163 15.0422 4.85371 14.9797C4.79111 14.9171 4.74161 14.8426 4.70809 14.7607C4.67457 14.6788 4.6577 14.591 4.65847 14.5025C4.65924 14.4139 4.67763 14.3265 4.71257 14.2451C4.74751 14.1638 4.7983 14.0902 4.86197 14.0287L10.3906 8.50005L4.86197 2.97139C4.7983 2.90989 4.74751 2.83633 4.71257 2.75499C4.67763 2.67365 4.65924 2.58617 4.65847 2.49765C4.6577 2.40914 4.67457 2.32135 4.70809 2.23942C4.74161 2.15749 4.79111 2.08305 4.85371 2.02046C4.9163 1.95786 4.99074 1.90836 5.07267 1.87484C5.1546 1.84132 5.24239 1.82445 5.33091 1.82522C5.41943 1.82599 5.50691 1.84438 5.58824 1.87932C5.66958 1.91426 5.74314 1.96505 5.80464 2.02872L11.8046 8.02872C11.9296 8.15374 11.9998 8.32328 11.9998 8.50005C11.9998 8.67683 11.9296 8.84637 11.8046 8.97139Z" fill="#92949C"/>
</svg>
