<svg width="24" height="24" viewBox="0 0 24 24" fill="none" xmlns="http://www.w3.org/2000/svg">
<path d="M16.707 20.293C16.8025 20.3852 16.8787 20.4956 16.9311 20.6176C16.9835 20.7396 17.0111 20.8708 17.0123 21.0036C17.0134 21.1364 16.9881 21.268 16.9379 21.3909C16.8876 21.5138 16.8133 21.6255 16.7194 21.7194C16.6255 21.8133 16.5139 21.8875 16.391 21.9378C16.2681 21.9881 16.1364 22.0134 16.0036 22.0122C15.8709 22.0111 15.7396 21.9835 15.6176 21.9311C15.4956 21.8787 15.3853 21.8025 15.293 21.707L6.29303 12.707C6.10556 12.5195 6.00024 12.2652 6.00024 12C6.00024 11.7348 6.10556 11.4805 6.29303 11.293L15.293 2.29299C15.3853 2.19748 15.4956 2.1213 15.6176 2.06889C15.7396 2.01648 15.8709 1.98889 16.0036 1.98774C16.1364 1.98659 16.2681 2.01189 16.391 2.06217C16.5139 2.11245 16.6255 2.1867 16.7194 2.28059C16.8133 2.37449 16.8876 2.48614 16.9379 2.60904C16.9881 2.73193 17.0134 2.86361 17.0123 2.99639C17.0111 3.12917 16.9835 3.26039 16.9311 3.38239C16.8787 3.5044 16.8025 3.61474 16.707 3.70699L8.41403 12L16.707 20.293Z" fill="black"/>
</svg>
