<svg width="24" height="24" viewBox="0 0 24 24" fill="none" xmlns="http://www.w3.org/2000/svg">
<path d="M16.707 20.293C16.8025 20.3853 16.8787 20.4956 16.9311 20.6176C16.9835 20.7396 17.0111 20.8708 17.0123 21.0036C17.0134 21.1364 16.9881 21.2681 16.9378 21.391C16.8875 21.5139 16.8133 21.6255 16.7194 21.7194C16.6255 21.8133 16.5138 21.8876 16.391 21.9378C16.2681 21.9881 16.1364 22.0134 16.0036 22.0123C15.8708 22.0111 15.7396 21.9835 15.6176 21.9311C15.4956 21.8787 15.3852 21.8025 15.293 21.707L6.293 12.707C6.10553 12.5195 6.00021 12.2652 6.00021 12C6.00021 11.7349 6.10553 11.4805 6.293 11.293L15.293 2.29302C15.3852 2.19751 15.4956 2.12133 15.6176 2.06892C15.7396 2.01651 15.8708 1.98892 16.0036 1.98777C16.1364 1.98662 16.2681 2.01192 16.391 2.0622C16.5138 2.11248 16.6255 2.18673 16.7194 2.28063C16.8133 2.37452 16.8875 2.48617 16.9378 2.60907C16.9881 2.73196 17.0134 2.86364 17.0123 2.99642C17.0111 3.1292 16.9835 3.26042 16.9311 3.38242C16.8787 3.50443 16.8025 3.61477 16.707 3.70702L8.414 12L16.707 20.293Z" fill="white"/>
</svg>
