<svg width="312" height="229" viewBox="0 0 312 229" fill="none" xmlns="http://www.w3.org/2000/svg">
<g clip-path="url(#clip0_57_1188)">
<path d="M91.8708 220.153H96.1603L98.2007 203.626L91.8701 203.626L91.8708 220.153Z" fill="#FFB6B6"/>
<path d="M97.5874 220.539V217.634L96.4598 217.703L91.8698 217.974L90.8075 218.039L89.9954 227.768L89.9519 228.289H92.9974L93.0953 227.771L93.5376 225.417L94.6796 227.771L94.9298 228.289H103.004C103.484 228.286 103.944 228.094 104.284 227.754C104.623 227.415 104.815 226.955 104.817 226.475C105.158 224.885 98.443 221.448 97.5874 220.539Z" fill="#2F2E41"/>
<path d="M41.6223 215.489L45.3527 217.603L55.2918 204.235L49.7856 201.114L41.6223 215.489Z" fill="#FFB6B6"/>
<path d="M46.4052 218.641L47.8373 216.116L46.8294 215.62L42.6999 213.595L41.7427 213.125L37.0404 220.002L35.9346 221.618L37.1854 222.328L38.5812 223.121L40.4738 220.89L40.2635 224.073L46.8584 227.815H46.862L47.2862 228.054C47.7051 228.29 48.2007 228.351 48.6643 228.223C49.1279 228.094 49.5216 227.787 49.7589 227.369C50.8393 226.152 46.6989 219.858 46.4052 218.641Z" fill="#2F2E41"/>
<path d="M107.725 83.0854C107.177 83.169 106.655 83.3705 106.193 83.6758C105.731 83.9812 105.341 84.3831 105.05 84.8539C104.758 85.3246 104.573 85.8529 104.506 86.4022C104.44 86.9516 104.493 87.5088 104.663 88.0354L98.1 93.7105L100.579 98.5361L109.735 90.3917C110.601 90.0398 111.308 89.3827 111.722 88.545C112.135 87.7072 112.227 86.7471 111.979 85.8465C111.731 84.9459 111.161 84.1674 110.377 83.6585C109.593 83.1496 108.649 82.9457 107.725 83.0854V83.0854Z" fill="#FFB6B6"/>
<path d="M100.814 98.3252L98.3487 93.4973L98.0949 93.0011C95.4555 93.9283 90.2709 96.9562 87.907 98.5027C87.0405 97.2966 82.2221 92.0485 78.0564 90.0347C78.0564 90.0311 78.0527 90.0347 78.0527 90.0347C77.7663 89.8971 77.4835 89.774 77.2043 89.6653C76.5591 89.4062 75.8728 89.264 75.1777 89.2452C74.8695 89.2435 74.5629 89.2874 74.2676 89.3755C73.9573 89.4663 73.6669 89.615 73.412 89.8138C72.734 90.3353 72.2192 91.2444 71.9291 92.6497C71.8955 93.3166 71.9827 93.9841 72.1866 94.62C73.3467 98.4629 77.9295 102.755 79.5501 105.522C79.7096 105.949 81.3012 110.158 83.8138 111.65C83.9461 111.73 84.0828 111.803 84.2234 111.867C84.3794 111.889 84.5352 111.907 84.6984 111.915H84.702C84.9566 111.933 85.212 111.936 85.467 111.925C85.5975 111.922 85.7317 111.911 85.8658 111.9C85.8948 111.896 85.9202 111.896 85.9492 111.893C86.7863 111.8 87.6113 111.621 88.411 111.357C88.5016 111.328 88.5923 111.299 88.6829 111.266C89.3701 111.032 90.0442 110.761 90.7023 110.455C91.083 110.281 91.4601 110.093 91.8371 109.897C92.294 109.658 92.7508 109.405 93.1967 109.14C93.581 108.919 93.9581 108.687 94.3279 108.448V108.445C94.4149 108.394 94.5019 108.336 94.589 108.275H94.5926C97.8991 106.127 100.597 103.631 101.115 102.599C101.502 102.023 101.816 101.401 102.05 100.748L100.814 98.3252Z" fill="#2F2E41"/>
<path d="M85.8084 115.309C85.8084 115.309 94.898 125.526 92.6132 127.809C90.3284 130.091 86.773 130.69 86.773 130.69L82.4263 130.356L85.8084 115.309Z" fill="#2F2E41"/>
<path d="M74.658 87.9019C86.3814 94.754 90.3234 101.3 84.9017 114.472L74.658 87.9019Z" fill="#2F2E41"/>
<path d="M64.148 142.681C63.1969 142.239 60.8344 177.893 60.6418 178.788L47.0947 204.01L66.377 212.644L79.0555 168.667L81.1685 184.85L78.3511 210.533L90.8149 213.545L99.4357 212.929L93.4485 139.815L82.0871 119.235L64.148 142.681Z" fill="#2F2E41"/>
<path d="M73.6471 88.9119C89.5655 100.751 85.6786 100.962 85.8082 119.236L93.3932 139.486C93.3932 139.486 66.6535 149.831 63.9118 142.984C61.17 136.136 73.6471 88.9119 73.6471 88.9119Z" fill="white"/>
<path d="M86.0145 113.668C85.9819 113.552 85.942 113.418 85.8985 113.276V113.273C85.8296 113.045 85.7499 112.795 85.6556 112.509C85.5976 112.327 85.536 112.132 85.4671 111.925C85.4235 111.795 85.3801 111.661 85.3329 111.52C84.0567 107.67 81.4826 100.491 78.3573 92.5555V92.5519C77.9803 91.5994 77.5959 90.6372 77.2044 89.6653C77.1681 89.5784 77.1355 89.4878 77.0992 89.4009C76.9433 89.0133 76.7838 88.6222 76.6243 88.231L72.0452 83.6566L69.5762 82.0485L64.1379 87.0648C64.1379 87.0648 64.1415 87.1517 64.1487 87.3219C64.2249 88.8685 64.5983 97.2206 64.6454 107.094C64.6563 109.582 64.6491 112.168 64.6055 114.765V114.834C64.5947 115.515 64.6056 116.043 64.6382 116.471C64.6539 116.775 64.689 117.077 64.7433 117.376C64.9463 118.492 65.3198 118.753 65.5192 121.074C65.5192 121.074 61.241 126.583 63.7245 131.299C63.9213 131.328 64.1203 131.34 64.3191 131.335C65.1965 131.35 67.2413 131.295 72.8646 131.292C73.8399 131.284 74.9203 131.284 76.1204 131.288C83.9842 131.288 79.7459 126.743 83.948 122.603C84.0386 122.512 84.1292 122.425 84.2271 122.338C84.5252 122.069 84.84 121.818 85.1698 121.589L85.8731 119.408L86.0979 118.709L86.1015 118.619L86.1233 117.652L86.1704 115.725L86.2031 114.443C86.162 114.179 86.099 113.92 86.0145 113.668Z" fill="#2F2E41"/>
<path opacity="0.2" d="M66.4418 99.3016L65.1928 107.089L73.6473 110.572L66.4418 99.3016Z" fill="black"/>
<path d="M78.9286 65.0647C88.3865 70.4412 80.622 84.6269 70.9878 79.5755C61.5303 74.1992 69.2947 60.0135 78.9286 65.0647Z" fill="#FFB6B6"/>
<path opacity="0.2" d="M61.0892 114.275C66.1043 120.179 74.6507 121.032 81.1414 117.069L61.0892 114.275Z" fill="black"/>
<path d="M83.9859 68.0457C83.3232 68.9068 81.9387 68.503 79.2273 69.1174C79.2333 68.1993 79.1271 67.2839 78.9111 66.3915C78.7094 67.4965 78.2673 68.5437 77.6161 69.4593C75.2617 69.7201 78.1478 76.8653 76.9424 82.1186C75.3892 71.0358 72.1224 73.9394 73.7727 76.1376C74.8293 77.5449 74.1249 81.7667 70.9553 79.6558C65.7256 82.1388 58.2769 69.8048 66.5324 64.0204C66.3848 60.8937 69.8673 60.3998 72.0119 61.3611C77.2163 57.4881 83.1622 62.4507 83.9859 68.0457Z" fill="#2F2E41"/>
<path d="M89.3272 108.406C92.0153 108.352 106.454 107.938 108.822 108.04C108.956 107.572 113.445 113.318 113.554 113.354C113.627 113.43 113.68 113.524 113.709 113.625C113.737 113.727 113.741 113.834 113.72 113.938C113.698 114.041 113.652 114.138 113.585 114.219C113.518 114.301 113.432 114.365 113.335 114.407C113.071 114.567 89.7931 114.137 89.5111 114.193C89.3891 114.191 89.2701 114.155 89.1679 114.088C89.0657 114.022 88.9843 113.928 88.9333 113.817L88.7777 113.469C88.7615 112.873 88.5663 109.829 88.7415 109.309C88.6985 109.211 88.6805 109.105 88.6891 108.998C88.6976 108.892 88.7325 108.789 88.7906 108.7C88.8487 108.61 88.9281 108.536 89.0218 108.485C89.1155 108.434 89.2204 108.407 89.3272 108.406Z" fill="#3F3D56"/>
<path opacity="0.17" d="M88.7777 113.468C88.9143 113.796 89.0891 114.208 89.5111 114.193L113.089 114.457C113.2 114.456 113.31 114.426 113.406 114.371C113.503 114.315 113.584 114.235 113.641 114.14C113.698 114.044 113.729 113.935 113.732 113.824C113.734 113.712 113.708 113.602 113.656 113.504L88.7777 113.468Z" fill="black"/>
<path d="M108.712 107.97C108.966 107.531 115.269 76.3728 115.795 76.1123L120.099 70.8529L120.484 70.564C121.019 70.2704 122.302 70.4689 122.186 71.285C121.175 76.1275 114.672 103.708 114.529 108.008L113.747 113.485C113.733 113.579 113.699 113.668 113.649 113.747C113.598 113.827 113.531 113.895 113.453 113.947C113.374 113.999 113.286 114.035 113.193 114.05C113.1 114.066 113.004 114.063 112.913 114.039C112.688 114.015 112.474 113.933 112.291 113.801C112.108 113.669 111.963 113.492 111.87 113.286C111.811 113.093 108.417 108.082 108.712 107.97Z" fill="#3F3D56"/>
<path opacity="0.17" d="M120.1 70.8531L111.869 113.287C112.144 113.983 113.432 114.471 113.732 113.558C113.737 113.557 122.177 71.3111 122.185 71.2858C122.275 70.2691 120.593 70.2369 120.1 70.8531Z" fill="black"/>
<path d="M119.852 72.5884L115.672 78.4091L110.979 100.671L113.161 102.572L119.852 72.5884Z" fill="white"/>
<path d="M91.8372 109.897C91.7502 109.223 91.5834 108.604 91.094 108.651C90.3725 108.648 90.5284 109.629 90.7024 110.455C90.7952 110.781 90.8511 111.116 90.8692 111.455L92.0257 111.407C91.9227 110.91 91.8596 110.405 91.8372 109.897Z" fill="#2F2E41"/>
<path d="M98.6532 109.738C98.646 109.546 98.6569 109.299 98.6315 109.068C98.5916 108.684 98.4611 108.351 98.0224 108.376C97.9414 108.375 97.8611 108.391 97.7867 108.423C97.319 108.633 97.5112 109.484 97.5039 109.897L97.881 109.883L98.6605 109.854C98.6569 109.817 98.6532 109.778 98.6532 109.738Z" fill="#2F2E41"/>
<path d="M100.963 109.644C100.945 109.137 101.035 108.242 100.332 108.282C99.5705 108.296 99.8207 109.332 99.8134 109.807L100.187 109.792L100.97 109.76C100.966 109.723 100.963 109.683 100.963 109.644Z" fill="#2F2E41"/>
<path d="M103.272 109.553C103.254 109.042 103.345 108.148 102.641 108.191C101.88 108.206 102.13 109.242 102.123 109.712L102.5 109.698L103.279 109.669C103.276 109.633 103.272 109.593 103.272 109.553Z" fill="#2F2E41"/>
<path d="M105.582 109.459C105.564 108.952 105.654 108.057 104.951 108.097C104.189 108.115 104.44 109.147 104.432 109.622L104.806 109.607L105.589 109.575C105.585 109.538 105.582 109.499 105.582 109.459Z" fill="#2F2E41"/>
<path d="M107.891 109.368C107.877 108.912 107.946 108.151 107.46 108.025H107.456C107.393 108.007 107.326 108.001 107.26 108.007C107.206 108.006 107.153 108.013 107.101 108.028H107.097C106.539 108.184 106.749 109.093 106.742 109.528L107.119 109.513L107.898 109.484C107.895 109.448 107.891 109.408 107.891 109.368Z" fill="#2F2E41"/>
<path d="M94.3279 108.448V108.445C94.3221 108.391 94.3124 108.338 94.2989 108.285C94.2409 107.977 94.0923 107.738 93.7188 107.76C93.3527 107.767 93.2221 108.006 93.1822 108.311C93.1633 108.587 93.1681 108.865 93.1968 109.14C93.2004 109.194 93.2004 109.242 93.2004 109.285L94.3569 109.238C94.3388 109.035 94.3569 108.731 94.3279 108.448Z" fill="#2F2E41"/>
<path d="M96.6193 108.227C96.5613 107.905 96.4127 107.644 96.0283 107.67C95.6477 107.677 95.5208 107.938 95.4881 108.256C95.4781 108.568 95.4854 108.88 95.5099 109.191L96.6665 109.144C96.6447 108.912 96.6737 108.539 96.6193 108.227Z" fill="#2F2E41"/>
<path d="M98.9324 108.173C98.8817 107.833 98.7403 107.554 98.3378 107.576C97.9427 107.583 97.823 107.862 97.794 108.198C97.7861 108.273 97.7837 108.348 97.7868 108.423C97.7904 108.673 97.823 108.926 97.8194 109.1L98.6315 109.068L98.9759 109.053C98.9542 108.829 98.9832 108.477 98.9324 108.173Z" fill="#2F2E41"/>
<path d="M93.6971 109.839C92.9357 109.854 93.1823 110.89 93.1786 111.36L94.3352 111.317C94.2917 110.842 94.4585 109.792 93.6971 109.839Z" fill="#2F2E41"/>
<path d="M96.0066 109.745C95.2452 109.759 95.4918 110.795 95.4882 111.27L96.6447 111.223C96.6012 110.752 96.768 109.701 96.0066 109.745Z" fill="#2F2E41"/>
<path d="M98.6532 109.738C98.5541 109.671 98.4347 109.642 98.316 109.654C98.2296 109.65 98.1436 109.668 98.0669 109.708C97.9903 109.749 97.9261 109.809 97.881 109.883C97.6743 110.216 97.8012 110.839 97.7976 111.176L98.9541 111.132C98.9179 110.748 99.023 109.98 98.6532 109.738Z" fill="#2F2E41"/>
<path d="M100.963 109.644C100.864 109.577 100.744 109.547 100.626 109.56C100.538 109.555 100.451 109.574 100.374 109.615C100.297 109.656 100.232 109.717 100.187 109.792C99.9875 110.129 100.111 110.748 100.107 111.085L101.264 111.038C101.227 110.658 101.333 109.893 100.963 109.644Z" fill="#2F2E41"/>
<path d="M103.272 109.553C103.173 109.487 103.054 109.457 102.935 109.47C102.849 109.465 102.763 109.484 102.686 109.524C102.609 109.564 102.545 109.624 102.5 109.698C102.293 110.031 102.42 110.654 102.417 110.991L103.573 110.947C103.537 110.564 103.642 109.796 103.272 109.553Z" fill="#2F2E41"/>
<path d="M105.582 109.459C105.483 109.392 105.363 109.363 105.245 109.376C105.157 109.37 105.07 109.389 104.993 109.43C104.915 109.471 104.851 109.532 104.806 109.607C104.606 109.944 104.73 110.564 104.726 110.9L105.883 110.853C105.846 110.473 105.952 109.709 105.582 109.459Z" fill="#2F2E41"/>
<path d="M107.891 109.368C107.792 109.302 107.673 109.273 107.554 109.285C107.468 109.28 107.381 109.298 107.305 109.338C107.228 109.379 107.164 109.439 107.119 109.513C106.916 109.85 107.039 110.469 107.036 110.806L108.192 110.763C108.156 110.379 108.261 109.615 107.891 109.368Z" fill="#2F2E41"/>
<path d="M59.7191 59.9588C57.6135 72.892 46.3273 57.5802 41.0205 70.3078C39.3521 74.917 42.2148 78.2142 44.0256 82.04C44.4388 85.1842 40.3444 86.7794 39.9155 89.6735C39.7962 96.3087 50.5117 95.9027 53.5074 91.7165C56.5854 87.3342 52.9098 81.4548 54.7599 76.751C57.3602 70.2205 67.9351 70.172 68.8564 62.5744C67.0722 60.0362 62.2746 57.1292 59.7191 59.9588Z" fill="#2F2E41"/>
<path d="M159.405 228.382C159.127 229.206 0.300143 229.206 0 228.384C0.277835 227.559 159.104 227.559 159.405 228.382Z" fill="#CCCCCC"/>
<path d="M68.2493 61.2226C68.1804 61.2516 68.1115 61.2806 68.0498 61.3132H68.0462C67.9882 61.3421 67.9302 61.3711 67.8722 61.4037C67.8649 61.4073 67.8613 61.411 67.8541 61.4146C67.7779 61.3422 67.7018 61.2697 67.622 61.1973C67.6014 61.3153 67.6063 61.4363 67.6365 61.5522L67.6474 61.5957C67.7199 61.6717 67.7961 61.7442 67.8758 61.8202C67.9483 61.7659 68.0172 61.708 68.0897 61.6536C68.1333 61.6174 68.1767 61.5812 68.2239 61.545C68.2311 61.4508 68.242 61.3421 68.2529 61.2226H68.2493ZM70.4318 57.1951C68.8148 56.8257 68.2928 58.9372 68.1369 59.955C67.5495 56.2606 65.1059 57.4233 65.9506 59.9441C66.2199 60.6904 66.6436 61.3717 67.1942 61.9434C67.2703 62.0303 67.3537 62.1172 67.4407 62.2042C67.3429 62.7112 67.8359 62.5808 68.503 62.1136C68.9956 61.7636 69.4512 61.3644 69.8626 60.922C71.1932 59.5276 72.2301 57.6623 70.4318 57.1951ZM70.4826 59.2741C69.9837 59.9167 69.424 60.5098 68.8112 61.0452C68.6191 61.219 68.4233 61.3856 68.2239 61.545C68.2202 61.5776 68.2202 61.6065 68.2166 61.6319C68.2026 61.6671 68.1856 61.701 68.1659 61.7333C67.9628 62.0991 67.7344 61.8999 67.6474 61.5957C67.6402 61.5848 67.6293 61.5739 67.622 61.5631C67.3323 61.2641 67.0803 60.9308 66.8715 60.5707C65.3742 57.9774 67.7852 56.2136 67.6655 61.056C67.6435 61.1004 67.6288 61.1482 67.622 61.1973C67.6014 61.3153 67.6063 61.4363 67.6365 61.5522L67.6474 61.5957C67.7199 61.6717 67.7961 61.7442 67.8758 61.8202C67.9483 61.7659 68.0172 61.708 68.0897 61.6536C68.1333 61.6174 68.1767 61.5812 68.2239 61.545C68.2311 61.4508 68.242 61.3421 68.2529 61.2226V61.219C68.3472 60.2483 68.6046 58.5026 69.0795 58.0281C70.1237 57.2277 71.476 58.0933 70.4826 59.2741ZM68.2493 61.2226C68.1804 61.2516 68.1115 61.2806 68.0498 61.3132H68.0462C67.9882 61.3421 67.9302 61.3711 67.8722 61.4037C67.8649 61.4073 67.8613 61.411 67.8541 61.4146C67.7779 61.3422 67.7018 61.2697 67.622 61.1973C67.6014 61.3153 67.6063 61.4363 67.6365 61.5522L67.6474 61.5957C67.7199 61.6717 67.7961 61.7442 67.8758 61.8202C67.9483 61.7659 68.0172 61.708 68.0897 61.6536C68.1333 61.6174 68.1767 61.5812 68.2239 61.545C68.2311 61.4508 68.242 61.3421 68.2529 61.2226H68.2493Z" fill="#2F2E41"/>
<path d="M122.927 92.4054C122.398 92.4054 121.89 92.6153 121.517 92.9888C121.143 93.3624 120.932 93.8691 120.932 94.3974V113.668H82.6827C82.1539 113.668 81.6467 113.878 81.2727 114.252C80.8987 114.625 80.6887 115.132 80.6887 115.66C80.6887 116.188 80.8987 116.695 81.2727 117.069C81.6467 117.442 82.1539 117.652 82.6827 117.652H120.932V228.482H124.921V94.3974C124.921 93.8691 124.711 93.3624 124.337 92.9888C123.963 92.6153 123.455 92.4054 122.927 92.4054V92.4054Z" fill="#E6E6E6"/>
<path d="M89.8918 112.372C89.5202 111.961 89.0638 111.636 88.5541 111.42C88.0445 111.203 87.4938 111.099 86.9402 111.116C86.3865 111.132 85.8431 111.269 85.3475 111.516C84.8519 111.763 84.4159 112.115 84.0698 112.547L75.7125 110.203L73.0481 114.93L84.8967 118.074C85.668 118.602 86.6063 118.829 87.5339 118.712C88.4615 118.595 89.3139 118.142 89.9296 117.439C90.5454 116.736 90.8816 115.832 90.8746 114.898C90.8676 113.964 90.5179 113.065 89.8918 112.372L89.8918 112.372Z" fill="#FFB6B6"/>
<path d="M71.2476 106.819C70.6421 106.503 70.0366 106.196 69.4457 105.909C68.1622 105.276 66.9694 104.722 66.092 104.345C66.5231 103.039 66.8647 101.706 67.1144 100.353C68.1441 95.167 68.8438 87.0829 64.1487 87.322C63.4693 87.3707 62.8027 87.5322 62.1764 87.8C58.5182 89.8319 57.2638 97.9123 55.625 101.248C55.3386 101.636 52.4309 105.663 52.8986 108.644C54.2255 111.542 58.4457 114.019 62.4012 115.631L62.4048 115.634C63.1662 115.946 63.9203 116.225 64.6382 116.471C65.4576 116.75 66.2371 116.982 66.9368 117.163C68.3326 117.525 69.424 117.688 69.9496 117.615C70.6445 117.62 71.3373 117.54 72.0126 117.376L72.8428 115.913L73.354 115.008L76.0261 110.292L76.3016 109.807C74.6927 108.688 73.0035 107.689 71.2476 106.819V106.819Z" fill="#2F2E41"/>
<path d="M253.001 132.059C244.713 135.439 235.344 138.014 224.801 139.6C217.949 140.613 211.039 141.198 204.114 141.353C198.052 141.505 191.668 141.369 184.964 140.944V8.35026C184.965 7.68617 185.229 7.04961 185.7 6.58037C186.17 6.11112 186.808 5.84755 187.472 5.84753L188.473 5.85115L192.487 5.86202H192.556L300.3 6.13004H300.79L304.683 6.14091C305.242 7.93736 305.761 9.78815 306.242 11.6933C315.944 50.1903 308.78 109.318 253.001 132.059Z" fill="#F2F2F2"/>
<path d="M208.997 61.6512C209.061 66.0381 202.163 66.0381 202.228 61.6509C202.164 57.2644 209.061 57.2644 208.997 61.6512Z" fill="#12D696"/>
<path d="M268.566 67.1263H203.236C202.97 67.1263 202.714 67.2322 202.525 67.4206C202.336 67.6091 202.23 67.8648 202.23 68.1313C202.23 68.3979 202.336 68.6535 202.525 68.842C202.714 69.0305 202.97 69.1364 203.236 69.1364H268.566C269.889 69.1581 269.856 67.1045 268.566 67.1263Z" fill="#CCCCCC"/>
<path d="M245.34 71.1031H203.236C202.969 71.1031 202.713 71.2092 202.524 71.3981C202.335 71.5869 202.229 71.843 202.229 72.11C202.229 72.3771 202.335 72.6332 202.524 72.822C202.713 73.0108 202.969 73.1169 203.236 73.1169H245.34C246.656 73.135 246.634 71.085 245.34 71.1031Z" fill="#CCCCCC"/>
<path d="M268.566 37.2457H203.236C202.969 37.2457 202.713 37.3518 202.524 37.5406C202.335 37.7295 202.229 37.9856 202.229 38.2526C202.229 38.5197 202.335 38.7758 202.524 38.9646C202.713 39.1534 202.969 39.2595 203.236 39.2595H268.566C269.889 39.2776 269.856 37.2276 268.566 37.2457Z" fill="#CCCCCC"/>
<path d="M245.34 41.2262H203.236C202.969 41.2262 202.713 41.3323 202.524 41.5211C202.335 41.7099 202.229 41.966 202.229 42.2331C202.229 42.5001 202.335 42.7562 202.524 42.9451C202.713 43.1339 202.969 43.24 203.236 43.24H245.34C246.656 43.2581 246.634 41.2081 245.34 41.2262Z" fill="#CCCCCC"/>
<path d="M245.34 45.3949H203.236C202.969 45.3949 202.713 45.501 202.524 45.6898C202.335 45.8786 202.229 46.1347 202.229 46.4018C202.229 46.6688 202.335 46.9249 202.524 47.1138C202.713 47.3026 202.969 47.4087 203.236 47.4087H245.34C246.656 47.4268 246.634 45.3768 245.34 45.3949Z" fill="#CCCCCC"/>
<path d="M208.997 87.7069C209.061 92.0938 202.163 92.0938 202.228 87.7066C202.164 83.3201 209.061 83.3201 208.997 87.7069Z" fill="#12D696"/>
<path d="M268.566 93.1785H203.236C202.969 93.1785 202.713 93.2845 202.524 93.4734C202.335 93.6622 202.229 93.9183 202.229 94.1853C202.229 94.4524 202.335 94.7085 202.524 94.8973C202.713 95.0862 202.969 95.1922 203.236 95.1922H268.566C269.889 95.2103 269.856 93.1604 268.566 93.1785Z" fill="#CCCCCC"/>
<path d="M245.34 97.1589H203.236C202.969 97.1589 202.713 97.265 202.524 97.4539C202.335 97.6427 202.229 97.8988 202.229 98.1658C202.229 98.4329 202.335 98.689 202.524 98.8778C202.713 99.0666 202.969 99.1727 203.236 99.1727H245.34C246.656 99.1908 246.634 97.1408 245.34 97.1589Z" fill="#CCCCCC"/>
<path d="M207.921 31.7997C207.984 36.1537 201.138 36.1538 201.202 31.7994C201.139 27.4456 207.985 27.4456 207.921 31.7997Z" fill="#12D696"/>
<path d="M302.017 6.61677C301.497 6.09576 188.006 7.6189 188.135 6.08984C187.576 5.51324 305.129 4.19437 302.017 6.61677Z" fill="#CACACA"/>
<path d="M182.621 11.6967C185.854 11.6967 188.475 9.07828 188.475 5.84833C188.475 2.61839 185.854 0 182.621 0C179.387 0 176.766 2.61839 176.766 5.84833C176.766 9.07828 179.387 11.6967 182.621 11.6967Z" fill="#CACACA"/>
<path d="M306.146 11.6967C309.379 11.6967 312 9.07828 312 5.84833C312 2.61839 309.379 0 306.146 0C302.913 0 300.291 2.61839 300.291 5.84833C300.291 9.07828 302.913 11.6967 306.146 11.6967Z" fill="#CACACA"/>
<path d="M253.001 132.06C244.713 135.439 235.344 138.014 224.801 139.6C217.949 140.613 211.039 141.198 204.114 141.353C197.878 141.281 191.494 141.144 184.964 140.944V136.322C193.756 128.952 231.425 127.775 253.001 132.06Z" fill="#CACACA"/>
</g>
<defs>
<clipPath id="clip0_57_1188">
<rect width="312" height="229" fill="white"/>
</clipPath>
</defs>
</svg>
