<svg width="25" height="24" viewBox="0 0 25 24" fill="none" xmlns="http://www.w3.org/2000/svg">
<path d="M15.25 2.5H9.25C7.52715 2.50344 5.87584 3.18936 4.6576 4.4076C3.43936 5.62584 2.75344 7.27715 2.75 9V15C2.75344 16.7229 3.43936 18.3742 4.6576 19.5924C5.87584 20.8106 7.52715 21.4966 9.25 21.5H15.25C16.9729 21.4966 18.6242 20.8106 19.8424 19.5924C21.0606 18.3742 21.7466 16.7229 21.75 15V9C21.7466 7.27715 21.0606 5.62584 19.8424 4.4076C18.6242 3.18936 16.9729 2.50344 15.25 2.5ZM15.96 14.29C16.1474 14.4788 16.2525 14.734 16.2525 15C16.2525 15.266 16.1474 15.5212 15.96 15.71C15.7704 15.8959 15.5155 16.0001 15.25 16.0001C14.9845 16.0001 14.7296 15.8959 14.54 15.71L12.25 13.42L9.96 15.71C9.77044 15.8959 9.51551 16.0001 9.25 16.0001C8.98449 16.0001 8.72956 15.8959 8.54 15.71C8.35265 15.5212 8.24752 15.266 8.24752 15C8.24752 14.734 8.35265 14.4788 8.54 14.29L10.83 12L8.54 9.71C8.3517 9.5217 8.24591 9.2663 8.24591 9C8.24591 8.7337 8.3517 8.4783 8.54 8.29C8.7283 8.1017 8.9837 7.99591 9.25 7.99591C9.5163 7.99591 9.7717 8.1017 9.96 8.29L12.25 10.58L14.54 8.29C14.7283 8.1017 14.9837 7.99591 15.25 7.99591C15.5163 7.99591 15.7717 8.1017 15.96 8.29C16.1483 8.4783 16.2541 8.7337 16.2541 9C16.2541 9.2663 16.1483 9.5217 15.96 9.71L13.67 12L15.96 14.29Z" fill="#F56087"/>
</svg>
