<svg width="16" height="17" viewBox="0 0 16 17" fill="none" xmlns="http://www.w3.org/2000/svg">
<path d="M11.3333 7.15992V5.16659C11.3333 4.28253 10.9821 3.43468 10.357 2.80956C9.7319 2.18444 8.88406 1.83325 8 1.83325C7.11595 1.83325 6.2681 2.18444 5.64298 2.80956C5.01786 3.43468 4.66667 4.28253 4.66667 5.16659V7.15992C4.16743 7.40606 3.74688 7.78676 3.4524 8.2591C3.15792 8.73143 3.00124 9.27664 3 9.83325V11.8333C3.00123 12.6285 3.3177 13.3909 3.88004 13.9532C4.44238 14.5156 5.20473 14.832 6 14.8333H10C10.7953 14.832 11.5576 14.5156 12.12 13.9532C12.6823 13.3909 12.9988 12.6285 13 11.8333V9.83325C12.9988 9.27664 12.8421 8.73143 12.5476 8.2591C12.2531 7.78676 11.8326 7.40606 11.3333 7.15992V7.15992ZM8.66667 11.1666C8.66667 11.3434 8.59643 11.513 8.4714 11.638C8.34638 11.763 8.17681 11.8333 8 11.8333C7.82319 11.8333 7.65362 11.763 7.5286 11.638C7.40357 11.513 7.33333 11.3434 7.33333 11.1666V10.4999C7.33333 10.3231 7.40357 10.1535 7.5286 10.0285C7.65362 9.90349 7.82319 9.83325 8 9.83325C8.17681 9.83325 8.34638 9.90349 8.4714 10.0285C8.59643 10.1535 8.66667 10.3231 8.66667 10.4999V11.1666ZM10 6.83325H6V5.16659C6 4.63615 6.21071 4.12744 6.58579 3.75237C6.96086 3.3773 7.46957 3.16659 8 3.16659C8.53043 3.16659 9.03914 3.3773 9.41421 3.75237C9.78929 4.12744 10 4.63615 10 5.16659V6.83325Z" fill="#F48742"/>
</svg>
