<svg width="16" height="16" viewBox="0 0 16 16" fill="none" xmlns="http://www.w3.org/2000/svg">
<path d="M8.66667 14C8.66667 14.1769 8.59643 14.3464 8.4714 14.4714C8.34638 14.5965 8.17681 14.6667 8 14.6667H5.33333C4.4496 14.6656 3.60237 14.3141 2.97748 13.6892C2.35259 13.0643 2.00106 12.2171 2 11.3334V4.66671C2.00106 3.78298 2.35259 2.93575 2.97748 2.31085C3.60237 1.68596 4.4496 1.33443 5.33333 1.33337H8C8.17681 1.33337 8.34638 1.40361 8.4714 1.52864C8.59643 1.65366 8.66667 1.82323 8.66667 2.00004C8.66667 2.17685 8.59643 2.34642 8.4714 2.47145C8.34638 2.59647 8.17681 2.66671 8 2.66671H5.33333C4.8029 2.66671 4.29419 2.87742 3.91912 3.25249C3.54405 3.62757 3.33333 4.13627 3.33333 4.66671V11.3334C3.33333 11.8638 3.54405 12.3725 3.91912 12.7476C4.29419 13.1227 4.8029 13.3334 5.33333 13.3334H8C8.17681 13.3334 8.34638 13.4036 8.4714 13.5286C8.59643 13.6537 8.66667 13.8232 8.66667 14ZM13.8047 7.52871L11.138 4.86204C11.0765 4.79837 11.0029 4.74758 10.9216 4.71264C10.8403 4.6777 10.7528 4.65931 10.6643 4.65854C10.5757 4.65777 10.488 4.67464 10.406 4.70816C10.3241 4.74168 10.2497 4.79118 10.1871 4.85378C10.1245 4.91637 10.075 4.99081 10.0415 5.07274C10.0079 5.15467 9.99106 5.24246 9.99183 5.33097C9.9926 5.41949 10.011 5.50697 10.0459 5.58831C10.0809 5.66965 10.1317 5.74321 10.1953 5.80471L11.724 7.33337H6.66667C6.48986 7.33337 6.32029 7.40361 6.19526 7.52864C6.07024 7.65366 6 7.82323 6 8.00004C6 8.17685 6.07024 8.34642 6.19526 8.47144C6.32029 8.59647 6.48986 8.66671 6.66667 8.66671H11.724L10.1953 10.1954C10.1317 10.2569 10.0809 10.3304 10.0459 10.4118C10.011 10.4931 9.9926 10.5806 9.99183 10.6691C9.99106 10.7576 10.0079 10.8454 10.0415 10.9273C10.075 11.0093 10.1245 11.0837 10.1871 11.1463C10.2497 11.2089 10.3241 11.2584 10.406 11.2919C10.488 11.3254 10.5757 11.3423 10.6643 11.3415C10.7528 11.3408 10.8403 11.3224 10.9216 11.2874C11.0029 11.2525 11.0765 11.2017 11.138 11.138L13.8047 8.47137C13.9296 8.34636 13.9999 8.17682 13.9999 8.00004C13.9999 7.82326 13.9296 7.65373 13.8047 7.52871Z" fill="#F56087"/>
</svg>
