<svg width="16" height="18" viewBox="0 0 16 18" fill="none" xmlns="http://www.w3.org/2000/svg">
<g clip-path="url(#clip0_57_762)">
<path d="M15.4375 9C15.4375 9.62191 14.9337 10.1254 14.3125 10.1254H9.25V15.1879C9.25 15.8098 8.74621 16.3125 8.125 16.3125C7.50379 16.3125 7 15.8098 7 15.1879V10.1254H1.9375C1.31629 10.1254 0.8125 9.62191 0.8125 9C0.8125 8.37809 1.31629 7.87535 1.9375 7.87535H7V2.81285C7 2.19094 7.50379 1.6875 8.125 1.6875C8.74621 1.6875 9.25 2.19094 9.25 2.81285V7.87535H14.3125C14.9348 7.875 15.4375 8.37773 15.4375 9Z" fill="#92949C"/>
</g>
<defs>
<clipPath id="clip0_57_762">
<rect width="15.75" height="18" fill="white" transform="translate(0.25)"/>
</clipPath>
</defs>
</svg>
