<svg width="179" height="186" viewBox="0 0 179 186" fill="none" xmlns="http://www.w3.org/2000/svg">
<g clip-path="url(#clip0_57_850)">
<path d="M159.03 141.551L159.027 141.635L163.229 186H132.563L128.588 158.752L126.839 185.301L95.3469 184.952L98.692 150.096L101.537 133.939V133.936L101.964 131.505H158.194L158.267 132.385L159.03 141.551Z" fill="#2F2E41"/>
<path d="M77.9886 167.27C81.2363 167.86 84.6229 164.209 85.5527 159.114C85.9598 156.883 85.8284 154.746 85.2797 152.998L85.7777 150.061L94.1347 110.549C94.1347 110.549 109.524 79.8164 109.523 74.481C109.523 69.1458 105.072 66.5293 105.072 66.5293L99.0483 66.5855L80.1593 112.643L76.7575 146.679L76.2071 151.348C75.0763 152.79 74.1984 154.744 73.7916 156.974C72.8617 162.07 74.7408 166.679 77.9886 167.27Z" fill="#FFB6B6"/>
<path d="M139.26 47.4909L133.662 34.5657L115.467 37.7096L114.242 52.9165L139.26 47.4909Z" fill="#FFB6B6"/>
<path opacity="0.1" d="M139.26 47.4909L133.662 34.5657L115.467 37.7096L114.242 52.9165L139.26 47.4909Z" fill="black"/>
<path d="M178.8 74.3893C178.8 74.3893 165.853 50.2855 163.404 47.8402C162.314 46.7517 160.6 46.7365 159.033 47.0538L141.01 40.8536L134.901 37.427L134.499 43.9462L114.444 47.5399C114.555 43.5642 115.117 42.052 115.117 42.052L107.769 50.6349L93.4224 57.6215L93.4303 57.6844C92.3775 58.0513 91.3794 58.6791 90.6232 59.7174C87.8239 63.5601 80.1259 110.37 80.1259 110.37L96.5716 113.864L98.8098 99.8416L100.421 112.466L101.645 136.046C101.645 136.046 124.039 155.259 134.887 148.273C145.734 141.286 159.03 141.635 159.03 141.635L159.362 130.705C159.598 130.329 159.73 130.107 159.73 130.107L159.38 91.3373V81.0208C162.046 84.7285 165.263 87.917 169.003 89.4105C181.249 94.3011 178.8 74.3893 178.8 74.3893V74.3893Z" fill="#E6E6E6"/>
<path d="M122.662 39.9836C131.907 39.9836 139.401 32.5016 139.401 23.2722C139.401 14.0427 131.907 6.56079 122.662 6.56079C113.418 6.56079 105.923 14.0427 105.923 23.2722C105.923 32.5016 113.418 39.9836 122.662 39.9836Z" fill="#FFB6B6"/>
<path d="M134.671 27.9951C134.671 27.9951 136.126 22.909 139.401 23.2723C142.676 23.6356 143.404 20.7293 142.676 19.2761C141.949 17.8229 140.493 10.5571 140.493 10.5571C140.493 10.5571 141.221 5.47104 136.854 4.74446C132.487 4.01788 131.032 3.29129 130.304 1.83812C129.576 0.384959 118.66 -1.06821 115.021 1.11154C111.382 3.29129 108.471 7.47343 105.923 8.65198C103.376 9.83053 101.193 12.0103 102.648 15.6432C104.104 19.2761 106.215 26.3813 106.215 26.3813C106.215 26.3813 109.926 25.0888 110.654 27.2685C111.382 29.4483 108.471 26.5419 112.109 20.7293C115.748 14.9166 115.748 9.10395 121.571 11.2837C127.393 13.4634 133.943 12.7369 133.215 17.0964C132.487 21.4559 134.671 27.9951 134.671 27.9951V27.9951Z" fill="#2F2E41"/>
<path d="M133.647 160.476H6.51992C2.92476 160.476 0 157.556 0 153.967V86.5492C0 82.9602 2.92476 80.04 6.51992 80.04H133.647C137.242 80.04 140.167 82.9602 140.167 86.5492V153.967C140.167 157.556 137.242 160.476 133.647 160.476Z" fill="white"/>
<path d="M133.647 160.476H6.51992C2.92476 160.476 0 157.556 0 153.967V86.5492C0 82.9602 2.92476 80.04 6.51992 80.04H133.647C137.242 80.04 140.167 82.9602 140.167 86.5492V153.967C140.167 157.556 137.242 160.476 133.647 160.476ZM6.51992 81.127C3.52524 81.127 1.08878 83.5594 1.08878 86.5492V153.967C1.08878 156.957 3.52524 159.39 6.51992 159.39H133.647C136.642 159.39 139.078 156.957 139.078 153.967V86.5492C139.078 83.5594 136.642 81.127 133.647 81.127H6.51992Z" fill="#3F3D56"/>
<path d="M123.836 88.1923C124.737 88.1923 125.469 87.4623 125.469 86.5619C125.469 85.6614 124.737 84.9314 123.836 84.9314C122.934 84.9314 122.202 85.6614 122.202 86.5619C122.202 87.4623 122.934 88.1923 123.836 88.1923Z" fill="#3F3D56"/>
<path d="M128.191 88.1923C129.093 88.1923 129.824 87.4623 129.824 86.5619C129.824 85.6614 129.093 84.9314 128.191 84.9314C127.289 84.9314 126.557 85.6614 126.557 86.5619C126.557 87.4623 127.289 88.1923 128.191 88.1923Z" fill="#3F3D56"/>
<path d="M132.546 88.1923C133.448 88.1923 134.179 87.4623 134.179 86.5619C134.179 85.6614 133.448 84.9314 132.546 84.9314C131.644 84.9314 130.913 85.6614 130.913 86.5619C130.913 87.4623 131.644 88.1923 132.546 88.1923Z" fill="#3F3D56"/>
<path d="M9.25463 112.921C8.80434 112.921 8.43805 113.287 8.43805 113.736C8.43805 113.956 8.52285 114.158 8.67675 114.308C8.83199 114.467 9.03534 114.552 9.25463 114.552H131.457C131.907 114.552 132.274 114.186 132.274 113.736C132.274 113.517 132.189 113.314 132.035 113.165C131.88 113.006 131.676 112.921 131.457 112.921H9.25463Z" fill="#E6E6E6"/>
<path d="M116.214 112.649V114.823H9.25461C8.95521 114.823 8.68301 114.704 8.48704 114.503C8.28558 114.307 8.16583 114.035 8.16583 113.736C8.16583 113.139 8.6558 112.649 9.25461 112.649H116.214Z" fill="#92949C"/>
<path d="M130.096 108.573H119.208C118.008 108.573 117.031 107.598 117.031 106.399C117.031 105.2 118.008 104.225 119.208 104.225H130.096C131.297 104.225 132.274 105.2 132.274 106.399C132.274 107.598 131.297 108.573 130.096 108.573Z" fill="#E6E6E6"/>
<path d="M58.7809 97.1599H10.0712C8.87055 97.1599 7.89368 96.1849 7.89368 94.986C7.89368 93.787 8.87055 92.812 10.0712 92.812H58.7809C59.9816 92.812 60.9585 93.787 60.9585 94.986C60.9585 96.1849 59.9816 97.1599 58.7809 97.1599Z" fill="#E6E6E6"/>
<path d="M9.25463 137.378C8.80434 137.378 8.43805 137.744 8.43805 138.193C8.43805 138.413 8.52285 138.615 8.67675 138.765C8.83199 138.924 9.03534 139.009 9.25463 139.009H131.457C131.907 139.009 132.274 138.643 132.274 138.193C132.274 137.974 132.189 137.771 132.035 137.622C131.88 137.463 131.676 137.378 131.457 137.378H9.25463Z" fill="#E6E6E6"/>
<path d="M74.296 137.106V139.28H9.25461C8.95521 139.28 8.68301 139.161 8.48704 138.96C8.28558 138.764 8.16583 138.492 8.16583 138.193C8.16583 137.596 8.6558 137.106 9.25461 137.106H74.296Z" fill="#92949C"/>
<path d="M130.096 133.03H119.208C118.008 133.03 117.031 132.055 117.031 130.856C117.031 129.657 118.008 128.682 119.208 128.682H130.096C131.297 128.682 132.274 129.657 132.274 130.856C132.274 132.055 131.297 133.03 130.096 133.03Z" fill="#E6E6E6"/>
<path d="M149.157 41.27C158.573 41.27 166.206 33.8097 166.206 24.607C166.206 15.4043 158.573 7.94409 149.157 7.94409C139.74 7.94409 132.107 15.4043 132.107 24.607C132.107 33.8097 139.74 41.27 149.157 41.27Z" fill="#12D696"/>
<path d="M154.943 16.2021C152.674 20.3284 150.404 24.4548 148.134 28.5811C146.687 26.0293 145.248 23.4729 143.798 20.9231C143.297 20.0425 141.935 20.8345 142.437 21.7173C144.118 24.6732 145.782 27.6389 147.463 30.5947C147.75 31.1001 148.54 31.1118 148.824 30.5947C151.318 26.0619 153.811 21.5291 156.304 16.9963C156.793 16.1081 155.432 15.3132 154.943 16.2021Z" fill="white"/>
<path d="M172.693 68.5286L155.706 60.416C155.706 60.416 155.024 54.9861 151.838 53.0494C151.297 51.7595 150.673 50.3424 150.107 49.2196C148.708 46.4428 150.807 41.2029 149.058 41.2029C147.308 41.2029 144.722 46.7137 144.859 48.1895C144.964 49.3223 145.902 51.3002 146.096 53.0315C143.962 53.8348 142.241 55.2116 141.109 56.3079C140.13 57.2566 139.766 58.672 140.149 59.9796C141.258 63.7688 144.03 71.5946 148.008 71.5946C153.257 71.5946 154.656 70.5466 154.656 70.5466C154.656 70.5466 165.503 84.1704 173.551 85.2184C181.599 86.2664 172.693 68.5286 172.693 68.5286V68.5286Z" fill="#FFB6B6"/>
</g>
<defs>
<clipPath id="clip0_57_850">
<rect width="179" height="186" fill="white"/>
</clipPath>
</defs>
</svg>
