<svg width="25" height="24" viewBox="0 0 25 24" fill="none" xmlns="http://www.w3.org/2000/svg">
<path d="M12.75 2C10.7722 2 8.83879 2.58649 7.1943 3.6853C5.54981 4.78412 4.26809 6.3459 3.51121 8.17317C2.75433 10.0004 2.5563 12.0111 2.94215 13.9509C3.328 15.8907 4.28041 17.6725 5.67894 19.0711C7.07746 20.4696 8.85929 21.422 10.7991 21.8079C12.7389 22.1937 14.7496 21.9957 16.5768 21.2388C18.4041 20.4819 19.9659 19.2002 21.0647 17.5557C22.1635 15.9112 22.75 13.9778 22.75 12C22.7458 9.34913 21.6908 6.80805 19.8164 4.93361C17.942 3.05916 15.4009 2.00423 12.75 2ZM17.46 10.71L12.46 15.71C12.2704 15.8959 12.0155 16.0001 11.75 16.0001C11.4845 16.0001 11.2296 15.8959 11.04 15.71L8.04 12.71C7.94677 12.6168 7.87281 12.5061 7.82234 12.3842C7.77188 12.2624 7.74591 12.1319 7.74591 12C7.74591 11.7337 7.8517 11.4783 8.04 11.29C8.22831 11.1017 8.4837 10.9959 8.75 10.9959C9.01631 10.9959 9.2717 11.1017 9.46 11.29L11.75 13.59L16.04 9.29C16.2283 9.1017 16.4837 8.99591 16.75 8.99591C17.0163 8.99591 17.2717 9.1017 17.46 9.29C17.6483 9.4783 17.7541 9.7337 17.7541 10C17.7541 10.2663 17.6483 10.5217 17.46 10.71Z" fill="#12D696"/>
</svg>
